<svg xmlns="http://www.w3.org/2000/svg" viewBox="0 0 80 80" fill="none" stroke="#ff80ab" stroke-width="2.2" stroke-linecap="round" stroke-linejoin="round">
  <circle cx="40" cy="40" r="4" fill="#ff80ab" stroke="none"/>
  <path d="M40 36 C32 26 22 30 24 38 C26 44 34 44 40 36 Z"/>
  <path d="M44 38 C54 30 60 38 56 44 C50 50 44 46 44 38 Z"/>
  <path d="M44 44 C50 54 44 62 38 58 C34 54 36 46 44 44 Z"/>
  <path d="M36 44 C26 50 28 60 36 58 C42 56 42 48 36 44 Z"/>
  <path d="M34 38 C26 36 22 44 28 46 C34 48 38 42 34 38 Z"/>
  <circle cx="20" cy="22" r="2" fill="#ff80ab" stroke="none" opacity="0.5"/>
  <circle cx="64" cy="60" r="1.5" fill="#ff80ab" stroke="none" opacity="0.5"/>
</svg>